<svg width="20" height="20" viewBox="0 0 20 20" fill="none" xmlns="http://www.w3.org/2000/svg">
<g clipPath="url(#clip0_254_819)">
<path d="M5.1202 0C8.37354 0 11.6269 0 14.8802 0C15.0869 0.0333333 15.2935 0.0533333 15.4935 0.1C17.7602 0.606667 19.2135 1.98 19.8335 4.22C19.9135 4.51333 19.9469 4.82 20.0002 5.12V14.88C19.9869 14.9467 19.9802 15.02 19.9602 15.0867C19.8269 15.6067 19.7602 16.16 19.5402 16.64C18.5469 18.7933 16.8335 19.9467 14.4535 19.98C11.4869 20.02 8.5202 19.9933 5.55354 19.9867C4.40687 19.9867 3.3402 19.6733 2.4002 19.0067C0.813536 17.8733 0.0135359 16.3133 0.00686921 14.3667C0.000202546 11.4533 0.00686921 8.54 0.00686921 5.62C0.00686921 5.24667 0.0268692 4.86 0.106869 4.49333C0.613536 2.23333 1.99354 0.786667 4.2202 0.166667C4.51354 0.0866667 4.8202 0.0533333 5.1202 0ZM18.2202 10C18.2202 8.55333 18.2202 7.11333 18.2202 5.66667C18.2202 5.20667 18.1735 4.76 18.0202 4.32667C17.4535 2.74 16.0869 1.78 14.3602 1.78C11.4535 1.78 8.54687 1.77333 5.6402 1.78667C5.20687 1.78667 4.74687 1.84667 4.3402 1.98667C2.7402 2.52 1.78687 3.90667 1.78687 5.63333C1.78687 8.54 1.78687 11.4467 1.78687 14.3533C1.78687 14.8067 1.83354 15.2467 1.99354 15.6733C2.5602 17.2467 3.91354 18.2067 5.6202 18.2133C8.54687 18.22 11.4735 18.2133 14.4002 18.2133C15.7135 18.2133 16.7669 17.6867 17.5402 16.62C18.0335 15.9467 18.2269 15.1733 18.2269 14.3467C18.2269 12.8933 18.2269 11.4467 18.2269 9.99333L18.2202 10Z" fill="#1A1A1A"/>
<path d="M15.1526 9.99368C15.1526 12.8203 12.8259 15.1537 9.99926 15.147C7.16593 15.147 4.83926 12.8137 4.8526 9.98701C4.85926 7.16035 7.16593 4.85368 9.99926 4.84035C12.8259 4.83368 15.1526 7.16035 15.1593 9.98701L15.1526 9.99368ZM13.3726 9.99368C13.3726 8.13368 11.8526 6.62035 9.99926 6.62035C8.13926 6.62035 6.62593 8.14035 6.62593 9.99368C6.62593 11.8537 8.14593 13.367 9.99926 13.367C11.8593 13.367 13.3726 11.847 13.3726 9.99368Z" fill="#1A1A1A"/>
<path d="M15.4004 3.34719C16.1137 3.36719 16.6937 3.96719 16.6737 4.66053C16.6537 5.39386 16.0537 5.96053 15.3271 5.93386C14.6271 5.90719 14.0538 5.30719 14.0738 4.62053C14.0938 3.89386 14.6871 3.32719 15.4004 3.34719Z" fill="#1A1A1A"/>
</g>
<defs>
<clipPath id="clip0_254_819">
<rect width="20" height="20" fill="white"/>
</clipPath>
</defs>
</svg>
