<svg width="15" height="14" viewBox="0 0 15 14" fill="none" xmlns="http://www.w3.org/2000/svg">
<path fill-rule="evenodd" clip-rule="evenodd" d="M1.03117 6.02691C5.0577 4.05119 7.74268 2.74867 9.08611 2.11936C12.9219 0.322542 13.7189 0.0104165 14.2384 0.000109891C14.3527 -0.00215693 14.6082 0.0297341 14.7737 0.180964C14.9134 0.30866 14.9518 0.481158 14.9702 0.602228C14.9886 0.723297 15.0115 0.999097 14.9933 1.2146C14.7855 3.6743 13.8861 9.64335 13.4285 12.3983C13.2349 13.564 12.8536 13.9548 12.4845 13.9931C11.6825 14.0762 11.0734 13.3961 10.2965 12.8225C9.08085 11.9251 8.39409 11.3664 7.21409 10.4907C5.8504 9.47859 6.73442 8.92233 7.51159 8.01324C7.71498 7.77533 11.249 4.15509 11.3174 3.82668C11.326 3.7856 11.3339 3.6325 11.2532 3.55166C11.1724 3.47081 11.0532 3.49846 10.9672 3.52045C10.8453 3.55161 8.90325 4.99723 5.14115 7.85731C4.58991 8.2836 4.09062 8.49131 3.64327 8.48042C3.15011 8.46842 2.20146 8.16638 1.49623 7.90821C0.631245 7.59154 -0.0562297 7.42412 0.00363389 6.88633C0.0348146 6.60622 0.377327 6.31974 1.03117 6.02691Z" fill="#0C0C0C"/>
</svg>
