<svg width="19" height="20" viewBox="0 0 19 20" fill="none" xmlns="http://www.w3.org/2000/svg">
<path d="M13.5678 0.760815L13.0792 0H10.1222V6.85231L10.1122 13.5455C10.1172 13.5952 10.1222 13.6499 10.1222 13.6996C10.1222 15.3754 8.74198 16.7429 7.03933 16.7429C5.33668 16.7429 3.95643 15.3804 3.95643 13.6996C3.95643 12.0239 5.33668 10.6564 7.03933 10.6564C7.39195 10.6564 7.73449 10.721 8.05185 10.8304V7.48881C7.72442 7.43411 7.38691 7.40427 7.03933 7.40427C3.52825 7.40925 0.666992 10.2337 0.666992 13.7046C0.666992 17.1755 3.52825 20 7.04437 20C10.5605 20 13.4217 17.1755 13.4217 13.7046V5.74341C14.6962 7.00149 16.3434 8.22974 18.167 8.62257V5.20636C16.1873 4.34112 14.2177 1.78518 13.5678 0.760815Z" fill="#1A1A1A"/>
</svg>
