<svg width="24" height="20" viewBox="0 0 24 20" fill="none" xmlns="http://www.w3.org/2000/svg">
<path d="M20.9483 4.11166C20.8589 3.76108 20.6048 3.49637 20.3142 3.41519C19.8001 3.27049 17.2942 2.94108 12.0001 2.94108C6.70594 2.94108 4.20241 3.27049 3.68359 3.41519C3.39653 3.49519 3.14241 3.7599 3.05182 4.11166C2.92359 4.61049 2.58829 6.70108 2.58829 9.9999C2.58829 13.2987 2.92359 15.3881 3.05182 15.8893C3.14123 16.2387 3.39535 16.5034 3.68476 16.5834C4.20241 16.7293 6.70594 17.0587 12.0001 17.0587C17.2942 17.0587 19.7989 16.7293 20.3165 16.5846C20.6036 16.5046 20.8577 16.2399 20.9483 15.8881C21.0765 15.3893 21.4118 13.294 21.4118 9.9999C21.4118 6.70578 21.0765 4.61166 20.9483 4.11166ZM23.2271 3.52696C23.7648 5.62343 23.7648 9.9999 23.7648 9.9999C23.7648 9.9999 23.7648 14.3764 23.2271 16.4728C22.9283 17.6317 22.0542 18.5434 20.9471 18.8517C18.9365 19.4117 12.0001 19.4117 12.0001 19.4117C12.0001 19.4117 5.06712 19.4117 3.053 18.8517C1.94123 18.5387 1.06829 17.6281 0.772999 16.4728C0.235352 14.3764 0.235352 9.9999 0.235352 9.9999C0.235352 9.9999 0.235352 5.62343 0.772999 3.52696C1.07182 2.36813 1.94594 1.45637 3.053 1.14813C5.06712 0.588135 12.0001 0.588135 12.0001 0.588135C12.0001 0.588135 18.9365 0.588135 20.9471 1.14813C22.0589 1.46108 22.9318 2.37166 23.2271 3.52696ZM9.64712 14.1175V5.88225L16.7059 9.9999L9.64712 14.1175Z" fill="#1A1A1A"/>
</svg>
