<svg width="1312" height="110" viewBox="0 0 1312 110" fill="none" xmlns="http://www.w3.org/2000/svg">
<path d="M466.075 55.3051L497.192 25.4127C497.733 24.9051 497.887 24.1548 497.6 23.4817C497.335 22.8086 496.695 22.3782 495.967 22.3782H488.453C487.989 22.3782 487.548 22.5437 487.228 22.8748L458.152 51.0458H431.051V24.1327C431.051 23.1617 430.257 22.3672 429.286 22.3672H423.691C422.72 22.3672 421.926 23.1617 421.926 24.1327V88.2541C421.926 89.2251 422.72 90.0196 423.691 90.0196H429.286C430.257 90.0196 431.051 89.2251 431.051 88.2541V59.6086H458.064L488.155 89.512C488.497 89.832 488.927 90.0196 489.391 90.0196H497.004C497.733 90.0196 498.362 89.6003 498.638 88.9162C498.924 88.243 498.759 87.5037 498.24 86.9961L466.097 55.2941H466.064L466.075 55.3051Z" fill="#FCFCFC"/>
<path d="M531.608 21.4512C506.991 21.4512 490.461 35.4208 490.461 56.1877C490.461 76.9546 506.991 90.9243 531.608 90.9243C556.226 90.9243 572.756 76.9546 572.756 56.1877C572.756 35.4208 556.215 21.4512 531.608 21.4512ZM563.564 56.1988C563.564 71.8567 550.731 82.3836 531.62 82.3836C512.508 82.3836 499.675 71.8567 499.675 56.1988C499.675 40.5408 512.508 30.0139 531.62 30.0139C550.731 30.0139 563.564 40.5298 563.564 56.1988Z" fill="#FCFCFC"/>
<path d="M730.251 22.3672H725.021C724.049 22.3672 723.255 23.1617 723.255 24.1327V81.181H721.512L670.378 22.963C670.036 22.5879 669.561 22.3672 669.054 22.3672H656.96C655.989 22.3672 655.194 23.1617 655.194 24.1327V88.2541C655.194 89.2251 655.978 90.0196 656.96 90.0196H662.19C663.161 90.0196 663.956 89.2251 663.956 88.2541V31.2058H665.699L716.921 89.4237C717.263 89.7989 717.738 90.0196 718.245 90.0196H730.251C731.222 90.0196 732.016 89.2251 732.016 88.2541V24.1327C732.016 23.1617 731.233 22.3672 730.251 22.3672Z" fill="#FCFCFC"/>
<path d="M820.281 22.72H757.075C756.303 22.72 755.663 23.349 755.663 24.1324V88.2538C755.663 89.0262 756.292 89.6662 757.075 89.6662H820.281C821.053 89.6662 821.693 89.0373 821.693 88.2538V83.3104C821.693 82.5379 821.064 81.8979 820.281 81.8979H764.071V59.9835H814.786C815.558 59.9835 816.198 59.3545 816.198 58.5711V53.8042C816.198 53.0317 815.569 52.3917 814.786 52.3917H764.071V30.4773H820.281C821.053 30.4773 821.693 29.8483 821.693 29.0648V24.1214C821.693 23.349 821.064 22.709 820.281 22.709V22.72Z" fill="#FCFCFC"/>
<path d="M910.091 22.367H846.886C845.915 22.367 845.12 23.1615 845.12 24.1325V88.2539C845.12 89.2249 845.904 90.0194 846.886 90.0194H910.091C911.062 90.0194 911.857 89.2249 911.857 88.2539V83.3104C911.857 82.3394 911.073 81.5449 910.091 81.5449H854.235V60.3366H904.596C905.567 60.3366 906.361 59.5422 906.361 58.5711V53.8042C906.361 52.8332 905.578 52.0387 904.596 52.0387H854.235V30.8304H910.091C911.062 30.8304 911.857 30.036 911.857 29.0649V24.1215C911.857 23.1504 911.073 22.356 910.091 22.356V22.367Z" fill="#FCFCFC"/>
<path d="M990.83 22.3672H985.589C984.618 22.3672 983.834 23.1617 983.834 24.1327V81.181H982.091L930.957 22.963C930.615 22.5879 930.14 22.3672 929.633 22.3672H917.539C916.568 22.3672 915.773 23.1617 915.773 24.1327V88.2541C915.773 89.2251 916.568 90.0196 917.539 90.0196H922.769C923.74 90.0196 924.535 89.2251 924.535 88.2541V31.2058H926.278L977.5 89.4237C977.842 89.7989 978.317 90.0196 978.836 90.0196H990.841C991.812 90.0196 992.595 89.2251 992.595 88.2541V24.1327C992.595 23.1617 991.801 22.3672 990.841 22.3672H990.83Z" fill="#FCFCFC"/>
<path d="M1042.36 55.3051L1073.48 25.4127C1074.02 24.9051 1074.16 24.1548 1073.89 23.4817C1073.62 22.8086 1072.98 22.3782 1072.25 22.3782H1064.74C1064.26 22.3782 1063.82 22.5437 1063.5 22.8748L1034.44 51.0458H1007.33V24.1327C1007.33 23.1617 1006.53 22.3672 1005.57 22.3672H999.966C998.995 22.3672 998.212 23.1617 998.212 24.1327V88.2541C998.212 89.2251 998.995 90.0196 999.966 90.0196H1005.57C1006.54 90.0196 1007.33 89.2251 1007.33 88.2541V59.6086H1034.34L1064.42 89.512C1064.75 89.832 1065.19 90.0196 1065.65 90.0196H1073.26C1074 90.0196 1074.61 89.6003 1074.9 88.9162C1075.18 88.243 1075.03 87.5037 1074.5 86.9961L1042.36 55.2941V55.3051Z" fill="#FCFCFC"/>
<path d="M1107.88 21.4512C1083.25 21.4512 1066.74 35.4208 1066.74 56.1877C1066.74 76.9546 1083.25 90.9243 1107.88 90.9243C1132.51 90.9243 1149.03 76.9546 1149.03 56.1877C1149.03 35.4208 1132.49 21.4512 1107.88 21.4512ZM1139.83 56.1988C1139.83 71.8567 1127 82.3836 1107.88 82.3836C1088.77 82.3836 1075.93 71.8567 1075.93 56.1988C1075.93 40.5408 1088.77 30.0139 1107.88 30.0139C1127 30.0139 1139.83 40.5298 1139.83 56.1988Z" fill="#FCFCFC"/>
<path d="M1220.35 23.1396C1220.03 22.6651 1219.48 22.3782 1218.9 22.3782H1213.04C1212.3 22.3782 1211.66 22.8306 1211.39 23.5037L1189.38 81.2693H1172.02L1150.1 23.5037C1149.85 22.8306 1149.19 22.3672 1148.45 22.3672H1142.49C1141.91 22.3672 1141.36 22.6541 1141.04 23.1286C1140.71 23.603 1140.65 24.2099 1140.84 24.7617L1165.57 88.883C1165.83 89.5562 1166.5 90.0086 1167.23 90.0086H1194.16C1194.88 90.0086 1195.53 89.5562 1195.81 88.883L1220.54 24.7617C1220.74 24.221 1220.69 23.603 1220.35 23.1286V23.1396Z" fill="#FCFCFC"/>
<path d="M1286.53 87.4703L1254.38 23.349C1254.08 22.7421 1253.47 22.3779 1252.8 22.3779H1236.03C1235.35 22.3779 1234.75 22.7421 1234.45 23.349L1202.28 87.4703C1202.01 88.0221 1202.04 88.6731 1202.36 89.1917C1202.68 89.7104 1203.26 90.0193 1203.85 90.0193H1209.71C1210.39 90.0193 1210.99 89.6552 1211.3 89.0483L1219.15 73.4345H1269.55L1277.41 89.0483C1277.69 89.6441 1278.31 90.0193 1278.99 90.0193H1284.93C1285.55 90.0193 1286.1 89.7104 1286.42 89.1917C1286.75 88.6731 1286.78 88.0221 1286.5 87.4703H1286.54H1286.53ZM1265.59 65.1476H1223.13L1240.33 31.0179H1248.41L1265.61 65.1476H1265.59Z" fill="#FCFCFC"/>
<path d="M651.707 45.5173C651.707 32.4084 637.87 22.5215 619.52 22.5215C611.453 22.5215 605.285 22.6649 599.315 22.7863C593.412 22.9077 587.31 23.0511 579.431 23.0511C578.405 23.0511 577.566 23.8787 577.566 24.916V87.5918C577.566 88.618 578.394 89.4567 579.431 89.4567H584.662C585.688 89.4567 586.526 88.6291 586.526 87.5918V67.9615H619.619L640.165 88.9049C640.518 89.258 640.993 89.4567 641.489 89.4567H648.904C649.655 89.4567 650.339 89.0042 650.626 88.298C650.902 87.5918 650.747 86.8084 650.217 86.2677L630.808 67.0456C643.122 64.2649 651.718 55.6139 651.718 45.4953L651.707 45.5173ZM622.234 59.5973C614.863 59.5973 605.318 59.5642 597.462 59.5422C593.081 59.5422 589.219 59.5091 586.526 59.5091V31.7022C591.315 31.6691 595.729 31.5808 600.364 31.4594C606.168 31.316 612.171 31.1615 619.608 31.1615C634.052 31.1615 642.681 38.4994 642.681 45.6056C642.681 52.7118 634.46 59.5973 622.234 59.5973Z" fill="#FCFCFC"/>
<path d="M97.1035 22.2898H92.1159C91.0897 22.2898 90.2511 23.1285 90.2511 24.1547V79.934H88.8608L40.1435 22.9409C39.7904 22.5216 39.2718 22.2898 38.7201 22.2898H27.189C26.1628 22.2898 25.3242 23.1285 25.3242 24.1547V87.0071C25.3242 88.0333 26.1628 88.8719 27.189 88.8719H32.1766C33.2028 88.8719 34.0415 88.0333 34.0415 87.0071V31.2167H35.4318L84.2484 88.2209C84.6015 88.6402 85.1201 88.8719 85.6718 88.8719H97.1256C98.1518 88.8719 98.9904 88.0333 98.9904 87.0071V24.1436C98.9904 23.1174 98.1518 22.2788 97.1256 22.2788H97.1146L97.1035 22.2898Z" fill="#FCFCFC"/>
<path d="M156.215 23.3271C155.895 22.6871 155.255 22.2788 154.538 22.2788H138.549C137.842 22.2788 137.18 22.6871 136.871 23.3271L106.195 86.1795C105.92 86.7643 105.953 87.4374 106.284 87.9892C106.637 88.5409 107.222 88.8609 107.862 88.8609H113.456C114.162 88.8609 114.813 88.4526 115.133 87.8126L122.571 72.6071H170.405L177.842 87.8126C178.162 88.4526 178.802 88.8609 179.52 88.8609H185.202C185.842 88.8609 186.449 88.5298 186.78 87.9892C187.111 87.4374 187.155 86.7533 186.869 86.1795L156.193 23.3271H156.226H156.215ZM150.234 31.0402L166.499 64.2098H126.51L142.775 31.0402H150.234Z" fill="#FCFCFC"/>
<path d="M228.226 21.7378C222.257 21.7378 216.795 21.8812 211.498 22.0137C206.235 22.1461 201.28 22.2785 195.895 22.2785C194.869 22.2785 194.02 23.1171 194.02 24.1433V86.9957C194.02 88.0219 194.858 88.8605 195.895 88.8605C201.181 88.8605 206.146 88.993 211.388 89.1254C216.717 89.2688 222.246 89.4012 228.226 89.4012C251.222 89.4012 269.242 74.5488 269.242 55.5806C269.242 36.6123 251.233 21.7599 228.226 21.7599V21.7378ZM228.226 80.7392C222.742 80.7392 217.589 80.5957 212.602 80.4523C209.391 80.364 206.202 80.2757 203.013 80.2205V30.9295C206.389 30.8854 209.633 30.7861 212.911 30.6978C217.766 30.5543 222.775 30.4219 228.226 30.4219C248.221 30.4219 260.182 43.2219 260.182 55.5806C260.182 67.9392 248.232 80.7392 228.226 80.7392Z" fill="#FCFCFC"/>
<path d="M285.22 22.2896H279.901C278.864 22.2896 278.036 23.1282 278.036 24.1544V86.9958C278.036 88.033 278.875 88.8606 279.901 88.8606H285.22C286.257 88.8606 287.084 88.022 287.084 86.9958V24.1544C287.084 23.1171 286.246 22.2896 285.22 22.2896Z" fill="#FCFCFC"/>
<path d="M746.615 22.2896H741.296C740.259 22.2896 739.432 23.1392 739.432 24.1875V88.0661C739.432 89.1144 740.27 89.964 741.296 89.964H746.615C747.652 89.964 748.48 89.1144 748.48 88.0661V24.1875C748.48 23.1392 747.641 22.2896 746.615 22.2896Z" fill="#FCFCFC"/>
<path d="M836.072 22.2896H830.754C829.716 22.2896 828.889 23.1392 828.889 24.1875V88.0661C828.889 89.1144 829.727 89.964 830.754 89.964H836.072C837.109 89.964 837.937 89.1144 837.937 88.0661V24.1875C837.937 23.1392 837.098 22.2896 836.072 22.2896Z" fill="#FCFCFC"/>
<path d="M344.221 23.3271C343.901 22.6871 343.261 22.2788 342.543 22.2788H326.554C325.848 22.2788 325.186 22.6871 324.877 23.3271L294.201 86.1795C293.925 86.7643 293.959 87.4374 294.29 87.9892C294.632 88.5409 295.228 88.8609 295.868 88.8609H301.462C302.168 88.8609 302.83 88.4526 303.139 87.8126L310.577 72.6071H358.411L365.848 87.8126C366.168 88.4526 366.808 88.8609 367.525 88.8609H373.208C373.848 88.8609 374.455 88.5298 374.786 87.9892C375.117 87.4374 375.161 86.7533 374.874 86.1795L344.199 23.3271H344.232H344.221ZM338.251 31.0402L354.516 64.2098H314.527L330.792 31.0402H338.251Z" fill="#FCFCFC"/>
</svg>
