<svg width="18" height="15" viewBox="0 0 18 15" fill="none" xmlns="http://www.w3.org/2000/svg">
<path d="M1.24001 6.46001C6.07001 4.34001 9.29002 2.95 10.91 2.27C15.51 0.340004 16.47 0.01 17.09 0C17.23 0 17.53 0.0300024 17.73 0.190002C17.9 0.330002 17.94 0.509999 17.97 0.639999C17.99 0.769999 18.02 1.07 18 1.3C17.75 3.94 16.67 10.33 16.12 13.28C15.89 14.53 15.43 14.95 14.99 14.99C14.03 15.08 13.3 14.35 12.36 13.74C10.9 12.78 10.08 12.18 8.66002 11.24C7.02002 10.16 8.08001 9.56 9.02001 8.59C9.26001 8.34 13.51 4.46001 13.59 4.10001C13.6 4.06001 13.61 3.89 13.51 3.81C13.41 3.72 13.27 3.75 13.17 3.78C13.02 3.81 10.69 5.35999 6.18001 8.42999C5.52001 8.88999 4.92003 9.11001 4.38003 9.10001C3.79003 9.09001 2.65001 8.76001 1.80001 8.49001C0.760008 8.15001 -0.0599696 7.97 0.0100304 7.39C0.0500304 7.09 0.460011 6.78 1.24001 6.47V6.46001Z" fill="#1A1A1A"/>
</svg>
