<svg width="30" height="30" viewBox="0 0 30 30" fill="none" xmlns="http://www.w3.org/2000/svg">
<path d="M25.9449 6.06998C25.0236 4.57623 23.5097 3.5225 21.7697 3.17375C20.726 2.9625 19.6648 3.43873 19.1248 4.35123L17.1711 7.65125C16.3073 9.11125 16.736 10.99 18.1485 11.93L19.7885 13.02C18.4148 15.99 15.9922 18.4188 13.0359 19.79L11.9336 18.1438C10.9899 16.735 9.10987 16.31 7.64987 17.18L4.34604 19.15C3.43604 19.6925 2.96605 20.7525 3.17355 21.7887C3.5173 23.5075 4.57107 25.0225 6.06357 25.9425C7.06482 26.56 8.17844 26.8763 9.31094 26.8763C9.85719 26.8763 10.406 26.8025 10.9497 26.6537C18.5485 24.5675 24.5672 18.5537 26.6535 10.9587C27.111 9.2925 26.8599 7.55498 25.9449 6.06998ZM25.4471 10.6275C23.4771 17.8 17.7933 23.4788 10.6171 25.4488C9.29335 25.8125 7.90595 25.6113 6.7197 24.8788C5.52095 24.1388 4.67475 22.9238 4.39975 21.5425C4.296 21.0238 4.53099 20.4938 4.98599 20.2225L8.28983 18.2525C8.60108 18.0675 8.94351 17.9787 9.28226 17.9787C9.90976 17.9787 10.5223 18.2825 10.896 18.8388L12.2898 20.92C12.456 21.1687 12.7722 21.265 13.0497 21.1488C16.6747 19.6325 19.6284 16.6738 21.1484 13.03C21.2647 12.7538 21.1686 12.435 20.9186 12.2688L18.8422 10.8875C17.9822 10.3162 17.7221 9.17375 18.2471 8.28625L20.1996 4.98627C20.4721 4.53002 21.0074 4.29374 21.5436 4.39999C22.9236 4.67624 24.1398 5.52249 24.8798 6.72249C25.6123 7.91249 25.8134 9.29877 25.4471 10.6275Z" fill="#1A1A1A"/>
</svg>
