<svg width="30" height="30" viewBox="0 0 30 30" fill="none" xmlns="http://www.w3.org/2000/svg">
<path d="M26.6913 25.8075L21.68 20.7962C23.35 18.9187 24.375 16.455 24.375 13.75C24.375 7.89125 19.6088 3.125 13.75 3.125C7.89125 3.125 3.125 7.89125 3.125 13.75C3.125 19.6087 7.89125 24.375 13.75 24.375C16.455 24.375 18.9188 23.35 20.7963 21.68L25.8075 26.6912C25.93 26.8137 26.09 26.8737 26.25 26.8737C26.41 26.8737 26.57 26.8125 26.6925 26.6912C26.935 26.4475 26.935 26.0525 26.6913 25.8075ZM4.37378 13.75C4.37378 8.58125 8.57878 4.375 13.7488 4.375C18.9188 4.375 23.1238 8.58125 23.1238 13.75C23.1238 18.9188 18.9188 23.125 13.7488 23.125C8.57878 23.125 4.37378 18.9188 4.37378 13.75Z" fill="#1A1A1A"/>
</svg>
