<svg width="18" height="18" viewBox="0 0 18 18" fill="none" xmlns="http://www.w3.org/2000/svg">
<path d="M15.5467 9.24771L10.6467 14.1477C10.5781 14.2163 10.4885 14.2499 10.3989 14.2499C10.3093 14.2499 10.2197 14.2156 10.1511 14.1477C10.0146 14.0112 10.0146 13.7893 10.1511 13.6528L14.4533 9.35059H2.69961C2.50641 9.35059 2.34961 9.19379 2.34961 9.00059C2.34961 8.80739 2.50641 8.65059 2.69961 8.65059H14.4547L10.1525 4.3484C10.016 4.2119 10.016 3.98997 10.1525 3.85347C10.289 3.71697 10.5109 3.71697 10.6474 3.85347L15.5474 8.75347C15.5796 8.78567 15.6054 8.82493 15.623 8.86763C15.6587 8.95303 15.6587 9.04969 15.623 9.13509C15.6047 9.17639 15.5789 9.21551 15.5467 9.24771Z" fill="#1A1A1A"/>
</svg>
