<svg width="18" height="18" viewBox="0 0 18 18" fill="none" xmlns="http://www.w3.org/2000/svg">
<path d="M17.9395 5.29C17.8695 3.85 17.5395 2.57001 16.4895 1.52001C15.4395 0.470007 14.1595 0.14001 12.7195 0.0700098C11.2295 -0.00999023 6.77953 -0.00999023 5.29953 0.0700098C3.85953 0.14001 2.58954 0.470007 1.52954 1.52001C0.469543 2.57001 0.149531 3.85 0.0795312 5.29C-0.00046875 6.78 -0.00046875 11.23 0.0795312 12.72C0.149531 14.16 0.479543 15.44 1.52954 16.49C2.58954 17.54 3.85953 17.87 5.29953 17.94C6.78953 18.02 11.2395 18.02 12.7195 17.94C14.1595 17.87 15.4395 17.54 16.4895 16.49C17.5395 15.44 17.8695 14.16 17.9395 12.72C18.0195 11.23 18.0195 6.78001 17.9395 5.30001V5.29ZM8.99955 13.75C6.37955 13.75 4.24954 11.62 4.24954 9C4.24954 6.38 6.37955 4.25 8.99955 4.25C11.6195 4.25 13.7495 6.38 13.7495 9C13.7495 11.62 11.6195 13.75 8.99955 13.75ZM14.5195 4.5C13.9695 4.5 13.5195 4.05 13.5195 3.5C13.5195 2.95 13.9595 2.5 14.5195 2.5C15.0695 2.5 15.5195 2.95 15.5195 3.5C15.5195 4.05 15.0695 4.5 14.5195 4.5ZM12.2495 9C12.2495 10.79 10.7895 12.25 8.99955 12.25C7.20955 12.25 5.74954 10.79 5.74954 9C5.74954 7.21 7.20955 5.75 8.99955 5.75C10.7895 5.75 12.2495 7.21 12.2495 9Z" fill="#FCFCFC"/>
</svg>
