<svg width="24" height="24" viewBox="0 0 24 24" fill="none" xmlns="http://www.w3.org/2000/svg">
<path d="M22.9449 3.06998C22.0236 1.57623 20.5097 0.522502 18.7697 0.173752C17.726 -0.0374985 16.6648 0.438734 16.1248 1.35123L14.1711 4.65125C13.3073 6.11125 13.736 7.99001 15.1485 8.93001L16.7885 10.02C15.4148 12.99 12.9922 15.4188 10.0359 16.79L8.93362 15.1438C7.98987 13.735 6.10987 13.31 4.64987 14.18L1.34604 16.15C0.436039 16.6925 -0.0339461 17.7525 0.173554 18.7887C0.517304 20.5075 1.57107 22.0225 3.06357 22.9425C4.06482 23.56 5.17844 23.8763 6.31094 23.8763C6.85719 23.8763 7.40599 23.8025 7.94974 23.6537C15.5485 21.5675 21.5672 15.5537 23.6535 7.95875C24.111 6.2925 23.8599 4.55498 22.9449 3.06998ZM22.4471 7.62752C20.4771 14.8 14.7933 20.4788 7.6171 22.4488C6.29335 22.8125 4.90595 22.6113 3.7197 21.8788C2.52095 21.1388 1.67475 19.9238 1.39975 18.5425C1.296 18.0238 1.53099 17.4938 1.98599 17.2225L5.28983 15.2525C5.60108 15.0675 5.94351 14.9787 6.28226 14.9787C6.90976 14.9787 7.52228 15.2825 7.89603 15.8388L9.28976 17.92C9.45601 18.1687 9.77215 18.265 10.0497 18.1488C13.6747 16.6325 16.6284 13.6738 18.1484 10.03C18.2647 9.75376 18.1686 9.435 17.9186 9.26875L15.8422 7.88749C14.9822 7.31624 14.7221 6.17375 15.2471 5.28625L17.1996 1.98627C17.4721 1.53002 18.0074 1.29374 18.5436 1.39999C19.9236 1.67624 21.1398 2.52249 21.8798 3.72249C22.6123 4.91249 22.8134 6.29877 22.4471 7.62752Z" fill="#1A1A1A"/>
</svg>
