<svg width="50" height="56" viewBox="0 0 50 56" fill="none" xmlns="http://www.w3.org/2000/svg">
<path d="M0.6 6.59999C0.466667 5.13333 2.4 3.66666 6.4 2.2C10.4 0.733327 13.9333 -9.05991e-06 17 -9.05991e-06C19.1333 -9.05991e-06 20.1333 0.46666 20 1.4L8.2 54.8C7.93333 55.0667 7.33333 55.2667 6.4 55.4C5.6 55.5333 5.2 55.4 5.2 55L0.6 6.59999ZM30.4 6.59999C30.2667 5.13333 32.2 3.66666 36.2 2.2C40.2 0.733327 43.7333 -9.05991e-06 46.8 -9.05991e-06C48.9333 -9.05991e-06 49.9333 0.46666 49.8 1.4L38 54.8C37.7333 55.0667 37.1333 55.2667 36.2 55.4C35.4 55.5333 35 55.4 35 55L30.4 6.59999Z" fill="#338D96"/>
</svg>
