<svg width="18" height="15" viewBox="0 0 18 15" fill="none" xmlns="http://www.w3.org/2000/svg">
<path d="M1.23806 6.46001C6.06806 4.34001 9.28807 2.95 10.9081 2.27C15.5081 0.340004 16.4681 0.01 17.0881 0C17.2281 0 17.5281 0.0300024 17.7281 0.190002C17.8981 0.330002 17.9381 0.509999 17.9681 0.639999C17.9881 0.769999 18.0181 1.07 17.9981 1.3C17.7481 3.94 16.6681 10.33 16.1181 13.28C15.8881 14.53 15.4281 14.95 14.9881 14.99C14.0281 15.08 13.2981 14.35 12.3581 13.74C10.8981 12.78 10.0781 12.18 8.65807 11.24C7.01807 10.16 8.07806 9.56 9.01806 8.59C9.25806 8.34 13.5081 4.46001 13.5881 4.10001C13.5981 4.06001 13.6081 3.89 13.5081 3.81C13.4081 3.72 13.2681 3.75 13.1681 3.78C13.0181 3.81 10.6881 5.35999 6.17806 8.42999C5.51806 8.88999 4.91807 9.11001 4.37807 9.10001C3.78807 9.09001 2.64806 8.76001 1.79806 8.49001C0.758055 8.15001 -0.0619228 7.97 0.00807725 7.39C0.0480772 7.09 0.458058 6.78 1.23806 6.47V6.46001Z" fill="#FCFCFC"/>
</svg>
