<svg width="24" height="20" viewBox="0 0 24 20" fill="none" xmlns="http://www.w3.org/2000/svg">
<path d="M20.9483 4.11176C20.8589 3.76118 20.6048 3.49647 20.3142 3.41529C19.8001 3.27059 17.2942 2.94118 12.0001 2.94118C6.70594 2.94118 4.20241 3.27059 3.68359 3.41529C3.39653 3.49529 3.14241 3.76 3.05182 4.11176C2.92359 4.61059 2.58829 6.70118 2.58829 10C2.58829 13.2988 2.92359 15.3882 3.05182 15.8894C3.14123 16.2388 3.39535 16.5035 3.68476 16.5835C4.20241 16.7294 6.70594 17.0588 12.0001 17.0588C17.2942 17.0588 19.7989 16.7294 20.3165 16.5847C20.6036 16.5047 20.8577 16.24 20.9483 15.8882C21.0765 15.3894 21.4118 13.2941 21.4118 10C21.4118 6.70588 21.0765 4.61176 20.9483 4.11176ZM23.2271 3.52706C23.7648 5.62353 23.7648 10 23.7648 10C23.7648 10 23.7648 14.3765 23.2271 16.4729C22.9283 17.6318 22.0542 18.5435 20.9471 18.8518C18.9365 19.4118 12.0001 19.4118 12.0001 19.4118C12.0001 19.4118 5.06712 19.4118 3.053 18.8518C1.94123 18.5388 1.06829 17.6282 0.772999 16.4729C0.235352 14.3765 0.235352 10 0.235352 10C0.235352 10 0.235352 5.62353 0.772999 3.52706C1.07182 2.36823 1.94594 1.45647 3.053 1.14823C5.06712 0.588234 12.0001 0.588234 12.0001 0.588234C12.0001 0.588234 18.9365 0.588234 20.9471 1.14823C22.0589 1.46117 22.9318 2.37176 23.2271 3.52706ZM9.64712 14.1176V5.88235L16.7059 10L9.64712 14.1176Z" fill="#FCFCFC"/>
</svg>
