<svg width="68" height="46" viewBox="0 0 68 46" fill="none" xmlns="http://www.w3.org/2000/svg">
<path d="M38.1307 40.1436L66.6614 13.3943C67.5208 12.5891 67.5935 11.2062 66.8226 10.3151C66.4497 9.87947 65.9411 9.62535 65.385 9.58904C64.8321 9.56264 64.2918 9.75736 63.8747 10.1468L38.6204 33.8301L38.4972 33.9456L36.2349 36.0644L36.1844 36.0116V10.9719C38.1496 10.127 39.5367 8.10719 39.5367 5.75735C39.5367 2.65172 37.1038 0.120361 34.1086 0.120361C31.1133 0.120361 28.6805 2.64842 28.6805 5.75735C28.6805 8.07749 30.0359 10.0775 31.9632 10.9422V36.0083L31.9 36.0413L29.7294 34.0083L29.5367 33.8268L4.27607 10.1435C3.86533 9.75406 3.33136 9.55934 2.77212 9.58574C2.21288 9.61875 1.70103 9.87288 1.32821 10.3118C0.955378 10.7475 0.76897 11.3052 0.800566 11.8894C0.825842 12.4669 1.07544 13.0016 1.48935 13.391L18.0359 28.9027C24.3898 34.8466 27.9854 38.2294 30.0264 40.1403V40.1667L32.6583 42.6552L32.7942 42.7641C32.8384 42.7971 32.8827 42.8367 32.9301 42.8664C32.9869 42.906 33.0533 42.939 33.1417 42.9885C33.186 43.0149 33.2365 43.0413 33.2839 43.0545C33.3598 43.0875 33.4387 43.1139 33.5209 43.1337L33.6567 43.1733C33.7389 43.1865 33.8242 43.1997 33.9 43.1997C33.9695 43.2129 34.0359 43.2129 34.0991 43.2129C34.1496 43.2129 34.2034 43.2129 34.2539 43.1997C34.3361 43.1997 34.415 43.1865 34.4909 43.1733C34.5414 43.1667 34.5888 43.1535 34.6394 43.1337C34.7215 43.1139 34.8005 43.0875 34.87 43.0611C34.9206 43.0413 34.968 43.0149 35.0375 42.9819C35.1007 42.9489 35.167 42.9093 35.2239 42.873C35.2681 42.84 35.3124 42.807 35.3787 42.7509L38.1338 40.1667V40.1403L38.1307 40.1436Z" fill="#1A1A1A"/>
<path d="M2.88945 45.764C4.04585 45.764 4.98424 44.7838 4.98424 43.5759V28.1039C4.98424 26.896 4.04585 25.9092 2.88945 25.9092C1.73306 25.9092 0.794678 26.896 0.794678 28.1039V43.5759C0.794678 44.7838 1.73306 45.764 2.88945 45.764Z" fill="#1A1A1A"/>
<path d="M67.3927 43.5793V28.1073C67.3927 26.8994 66.4543 25.9126 65.2979 25.9126C64.1415 25.9126 63.2031 26.8994 63.2031 28.1073V43.5793C63.2031 44.7873 64.1415 45.7675 65.2979 45.7675C66.4543 45.7675 67.3927 44.7873 67.3927 43.5793Z" fill="#1A1A1A"/>
</svg>
