<svg width="67" height="46" viewBox="0 0 67 46" fill="none" xmlns="http://www.w3.org/2000/svg">
<path d="M37.7342 40.1436L66.2649 13.3943C67.1243 12.5891 67.197 11.2062 66.4261 10.3151C66.0533 9.87947 65.5446 9.62535 64.9885 9.58904C64.4356 9.56264 63.8953 9.75736 63.4782 10.1468L38.2239 33.8301L38.1007 33.9456L35.8385 36.0644L35.7879 36.0116V10.9719C37.7531 10.127 39.1402 8.10719 39.1402 5.75735C39.1402 2.65172 36.7073 0.120361 33.7121 0.120361C30.7168 0.120361 28.284 2.64842 28.284 5.75735C28.284 8.07749 29.6394 10.0775 31.5667 10.9422V36.0083L31.5036 36.0413L29.3329 34.0083L29.1402 33.8268L3.87959 10.1435C3.46885 9.75406 2.93488 9.55934 2.37564 9.58574C1.8164 9.61875 1.30455 9.87288 0.931721 10.3118C0.558894 10.7475 0.372486 11.3052 0.404081 11.8894C0.429358 12.4669 0.67896 13.0016 1.09286 13.391L17.6394 28.9027C23.9933 34.8466 27.5889 38.2294 29.6299 40.1403V40.1667L32.2618 42.6552L32.3977 42.7641C32.4419 42.7971 32.4862 42.8367 32.5336 42.8664C32.5904 42.906 32.6568 42.939 32.7453 42.9885C32.7895 43.0149 32.84 43.0413 32.8874 43.0545C32.9633 43.0875 33.0423 43.1139 33.1244 43.1337L33.2603 43.1733C33.3424 43.1865 33.4277 43.1997 33.5036 43.1997C33.5731 43.2129 33.6394 43.2129 33.7026 43.2129C33.7532 43.2129 33.8069 43.2129 33.8574 43.1997C33.9396 43.1997 34.0186 43.1865 34.0944 43.1733C34.1449 43.1667 34.1923 43.1535 34.2429 43.1337C34.325 43.1139 34.404 43.0875 34.4735 43.0611C34.5241 43.0413 34.5715 43.0149 34.641 42.9819C34.7042 42.9489 34.7705 42.9093 34.8274 42.873C34.8716 42.84 34.9159 42.807 34.9822 42.7509L37.7374 40.1667V40.1403L37.7342 40.1436Z" fill="#FCFCFC"/>
<path d="M2.49297 45.764C3.64936 45.764 4.58775 44.7838 4.58775 43.5759V28.1039C4.58775 26.896 3.64936 25.9092 2.49297 25.9092C1.33657 25.9092 0.398193 26.896 0.398193 28.1039V43.5759C0.398193 44.7838 1.33657 45.764 2.49297 45.764Z" fill="#FCFCFC"/>
<path d="M66.9962 43.5793V28.1073C66.9962 26.8994 66.0578 25.9126 64.9014 25.9126C63.745 25.9126 62.8066 26.8994 62.8066 28.1073V43.5793C62.8066 44.7873 63.745 45.7675 64.9014 45.7675C66.0578 45.7675 66.9962 44.7873 66.9962 43.5793Z" fill="#FCFCFC"/>
</svg>
