<svg width="249" height="15" viewBox="0 0 249 15" fill="none" xmlns="http://www.w3.org/2000/svg">
<path d="M14.8934 0.536377H13.9044C13.6991 0.536377 13.5348 0.707994 13.5348 0.922516V12.4968H13.2599L3.58217 0.671687C3.51266 0.585878 3.40839 0.536377 3.30097 0.536377H1.01029C0.804922 0.536377 0.640625 0.707994 0.640625 0.922516V13.9622C0.640625 14.1767 0.804922 14.3483 1.01029 14.3483H1.99923C2.2046 14.3483 2.3689 14.1767 2.3689 13.9622V2.38786H2.64378L12.3404 14.213C12.41 14.2988 12.5142 14.3483 12.6216 14.3483H14.8965C15.1019 14.3483 15.2662 14.1767 15.2662 13.9622V0.922516C15.2662 0.707994 15.1019 0.536377 14.8965 0.536377H14.8934Z" fill="#FCFCFC"/>
<path d="M26.6302 0.754196C26.567 0.622182 26.4374 0.536377 26.2984 0.536377H23.1231C22.9809 0.536377 22.8513 0.618882 22.7913 0.754196L16.6997 13.7939C16.6428 13.9127 16.6523 14.0546 16.7187 14.1701C16.785 14.2823 16.9051 14.3516 17.0314 14.3516H18.1436C18.2858 14.3516 18.4153 14.2691 18.4754 14.1338L19.954 10.9787H29.4548L30.9335 14.1338C30.9967 14.2658 31.1262 14.3516 31.2652 14.3516H32.3932C32.5196 14.3516 32.6396 14.2823 32.706 14.1701C32.7723 14.0579 32.7818 13.916 32.7249 13.7939L26.6333 0.754196H26.6302ZM25.4422 2.35157L28.6712 9.23608H20.7281L23.9572 2.35157H25.439H25.4422Z" fill="#FCFCFC"/>
<path d="M40.9356 0.424078C39.7508 0.424078 38.6639 0.45378 37.6149 0.480183C36.5723 0.506585 35.5865 0.536293 34.5122 0.536293C34.3069 0.536293 34.1426 0.70791 34.1426 0.922433V13.9621C34.1426 14.1766 34.3069 14.3482 34.5122 14.3482C35.5644 14.3482 36.547 14.3746 37.5896 14.401C38.6481 14.4307 39.7445 14.4571 40.9356 14.4571C45.5043 14.4571 49.0809 11.3746 49.0809 7.43731C49.0809 3.5 45.5012 0.41748 40.9356 0.41748V0.424078ZM40.9356 12.6651C39.8456 12.6651 38.8219 12.6353 37.8329 12.6056C37.1915 12.5858 36.5628 12.5693 35.9246 12.5594V2.33168C36.5944 2.32177 37.2421 2.30197 37.893 2.28217C38.8566 2.25247 39.8519 2.22276 40.9356 2.22276C44.9103 2.22276 47.2832 4.87624 47.2832 7.44391C47.2832 10.0116 44.9103 12.6651 40.9356 12.6651Z" fill="#FCFCFC"/>
<path d="M52.2574 0.536377H51.1958C50.9917 0.536377 50.8262 0.709257 50.8262 0.922516V13.9655C50.8262 14.1787 50.9917 14.3516 51.1958 14.3516H52.2574C52.4616 14.3516 52.6271 14.1787 52.6271 13.9655V0.922516C52.6271 0.709257 52.4616 0.536377 52.2574 0.536377Z" fill="#FCFCFC"/>
<path d="M63.9795 0.754196C63.9163 0.622182 63.7868 0.536377 63.6478 0.536377H60.4724C60.3303 0.536377 60.2007 0.618882 60.1407 0.754196L54.0491 13.7939C53.9922 13.9127 54.0017 14.0546 54.068 14.1701C54.1344 14.2823 54.2544 14.3516 54.3808 14.3516H55.493C55.6352 14.3516 55.7647 14.2691 55.8247 14.1338L57.3034 10.9787H66.8042L68.2828 14.1338C68.346 14.2658 68.4756 14.3516 68.6146 14.3516H69.7426C69.8689 14.3516 69.989 14.2823 70.0554 14.1701C70.1217 14.0579 70.1312 13.916 70.0743 13.7939L63.9827 0.754196H63.9795ZM62.7915 2.35157L66.0206 9.23608H58.0775L61.3066 2.35157H62.7884H62.7915Z" fill="#FCFCFC"/>
<path d="M93.9128 14.114C93.9697 13.9688 93.9381 13.8038 93.8338 13.6948L87.758 7.26247L93.6379 1.19974C93.7453 1.09083 93.7769 0.922516 93.7201 0.777301C93.6632 0.632085 93.5273 0.536377 93.3788 0.536377H91.9539C91.8559 0.536377 91.7611 0.57598 91.6916 0.648587L86.194 6.36808H81.1103V0.922516C81.1103 0.707994 80.946 0.536377 80.7406 0.536377H79.6822C79.4768 0.536377 79.3125 0.707994 79.3125 0.922516V13.9622C79.3125 14.1767 79.4768 14.3483 79.6822 14.3483H80.7406C80.946 14.3483 81.1103 14.1767 81.1103 13.9622V8.16346H86.1719L91.8591 14.2328C91.9286 14.3054 92.0234 14.3483 92.1245 14.3483H93.5652C93.7137 14.3483 93.8496 14.2559 93.9065 14.1107L93.9128 14.114Z" fill="#FCFCFC"/>
<path d="M101.371 0.351562C96.6852 0.351562 93.5352 3.20306 93.5352 7.444C93.5352 11.6849 96.6821 14.5364 101.371 14.5364C106.06 14.5364 109.203 11.6849 109.203 7.444C109.203 3.20306 106.056 0.351562 101.371 0.351562ZM101.371 12.7377C97.7152 12.7377 95.3519 10.6585 95.3519 7.444C95.3519 4.22947 97.7152 2.14695 101.371 2.14695C105.026 2.14695 107.387 4.22617 107.387 7.444C107.387 10.6618 105.023 12.7377 101.371 12.7377Z" fill="#FCFCFC"/>
<path d="M125.749 5.20627C125.749 2.48019 122.994 0.424072 119.338 0.424072C117.733 0.424072 116.504 0.453775 115.316 0.480177C114.141 0.50658 112.927 0.536288 111.354 0.536288C111.149 0.536288 110.984 0.707905 110.984 0.922427V13.9621C110.984 14.1766 111.149 14.3482 111.354 14.3482H112.397C112.602 14.3482 112.766 14.1766 112.766 13.9621V9.87625H119.357L123.449 14.2327C123.518 14.3053 123.613 14.3482 123.714 14.3482H125.19C125.338 14.3482 125.474 14.2525 125.531 14.1073C125.588 13.9621 125.556 13.7971 125.449 13.6849L121.585 9.68483C124.036 9.10727 125.752 7.30859 125.752 5.20297L125.749 5.20627ZM123.948 5.22607C123.948 6.63202 122.311 8.13698 119.875 8.13698C118.406 8.13698 116.507 8.13037 114.94 8.12377C114.068 8.12377 113.297 8.11717 112.763 8.11717V2.33167C113.717 2.32837 114.596 2.30527 115.521 2.28217C116.678 2.25246 117.872 2.22276 119.354 2.22276C122.229 2.22276 123.948 3.75082 123.948 5.22607Z" fill="#FCFCFC"/>
<path d="M139.474 14.3517H141.749C141.954 14.3517 142.119 14.1801 142.119 13.9656V0.925934C142.119 0.711412 141.954 0.539795 141.749 0.539795H140.76C140.555 0.539795 140.39 0.711412 140.39 0.925934V12.5002H140.115L130.438 0.67511C130.368 0.589301 130.264 0.539795 130.156 0.539795H127.866C127.66 0.539795 127.496 0.711412 127.496 0.925934V13.9656C127.496 14.1801 127.66 14.3517 127.866 14.3517H128.855C129.06 14.3517 129.224 14.1801 129.224 13.9656V2.39129H129.499L139.196 14.2164C139.265 14.3022 139.37 14.3517 139.477 14.3517H139.474Z" fill="#FCFCFC"/>
<path d="M156.699 2.31526C156.904 2.31526 157.069 2.14364 157.069 1.92912V0.922516C157.069 0.707994 156.904 0.536377 156.699 0.536377H144.721C144.516 0.536377 144.352 0.707994 144.352 0.922516V13.9622C144.352 14.1767 144.516 14.3483 144.721 14.3483H156.699C156.904 14.3483 157.069 14.1767 157.069 13.9622V12.9556C157.069 12.741 156.904 12.5694 156.699 12.5694H146.153V8.31198H155.66C155.865 8.31198 156.029 8.14037 156.029 7.92584V6.95554C156.029 6.74102 155.865 6.5694 155.66 6.5694H146.153V2.31196H156.699V2.31526Z" fill="#FCFCFC"/>
<path d="M159.079 14.3516H171.057C171.262 14.3516 171.426 14.18 171.426 13.9655V12.9589C171.426 12.7443 171.262 12.5727 171.057 12.5727H160.51V8.31528H170.017C170.222 8.31528 170.387 8.14367 170.387 7.92914V6.95884C170.387 6.74432 170.222 6.5727 170.017 6.5727H160.51V2.31526H171.057C171.262 2.31526 171.426 2.14364 171.426 1.92912V0.922516C171.426 0.707994 171.262 0.536377 171.057 0.536377H159.079C158.873 0.536377 158.709 0.707994 158.709 0.922516V13.9622C158.709 14.1767 158.873 14.3483 159.079 14.3483V14.3516Z" fill="#FCFCFC"/>
<path d="M187.323 0.536377H186.334C186.129 0.536377 185.964 0.707994 185.964 0.922516V12.4968H185.69L176.012 0.671687C175.942 0.585878 175.838 0.536377 175.731 0.536377H173.44C173.235 0.536377 173.07 0.707994 173.07 0.922516V13.9622C173.07 14.1767 173.235 14.3483 173.44 14.3483H174.429C174.634 14.3483 174.799 14.1767 174.799 13.9622V2.38786H175.073L184.77 14.213C184.84 14.2988 184.944 14.3483 185.051 14.3483H187.326C187.532 14.3483 187.696 14.1767 187.696 13.9622V0.922516C187.696 0.707994 187.532 0.536377 187.326 0.536377H187.323Z" fill="#FCFCFC"/>
<path d="M198.367 7.2593L204.247 1.19658C204.355 1.08766 204.386 0.919342 204.329 0.774127C204.273 0.628912 204.137 0.533203 203.988 0.533203H202.563C202.465 0.533203 202.371 0.572806 202.301 0.645414L196.803 6.36491H191.72V0.919343C191.72 0.70482 191.555 0.533203 191.35 0.533203H190.292C190.086 0.533203 189.922 0.70482 189.922 0.919343V13.959C189.922 14.1735 190.086 14.3451 190.292 14.3451H191.35C191.555 14.3451 191.72 14.1735 191.72 13.959V8.1603H196.781L202.468 14.2296C202.538 14.3022 202.633 14.3451 202.734 14.3451H204.175C204.323 14.3451 204.459 14.2527 204.516 14.1075C204.573 13.9623 204.541 13.7973 204.437 13.6851L198.361 7.2527L198.367 7.2593Z" fill="#FCFCFC"/>
<path d="M211.976 0.351562C207.291 0.351562 204.141 3.20306 204.141 7.444C204.141 11.6849 207.291 14.5364 211.976 14.5364C216.662 14.5364 219.812 11.6849 219.812 7.444C219.812 3.20306 216.662 0.351562 211.976 0.351562ZM211.976 12.7377C208.321 12.7377 205.961 10.6585 205.961 7.444C205.961 4.22947 208.324 2.14695 211.976 2.14695C215.629 2.14695 217.992 4.22617 217.992 7.444C217.992 10.6618 215.629 12.7377 211.976 12.7377Z" fill="#FCFCFC"/>
<path d="M234.556 0.701524C234.486 0.595913 234.373 0.536507 234.252 0.536507H233.14C232.986 0.536507 232.846 0.635515 232.793 0.787331L228.628 12.5134H225.396L221.251 0.787331C221.197 0.635515 221.058 0.533203 220.903 0.533203H219.775C219.655 0.533203 219.542 0.59591 219.472 0.69822C219.403 0.803831 219.387 0.935846 219.431 1.05466L224.117 14.0943C224.17 14.2461 224.309 14.3451 224.464 14.3451H229.567C229.722 14.3451 229.861 14.2461 229.914 14.0943L234.6 1.05466C234.641 0.935846 234.625 0.803831 234.559 0.69822L234.556 0.701524Z" fill="#FCFCFC"/>
<path d="M248.33 13.7939L242.239 0.754196C242.175 0.622182 242.049 0.536377 241.907 0.536377H238.728C238.586 0.536377 238.457 0.618882 238.397 0.754196L232.305 13.7939C232.248 13.9127 232.258 14.0546 232.324 14.1701C232.39 14.2823 232.51 14.3516 232.637 14.3516H233.749C233.891 14.3516 234.021 14.2691 234.081 14.1338L235.559 10.9787H245.06L246.539 14.1338C246.602 14.2658 246.728 14.3516 246.87 14.3516H247.998C248.125 14.3516 248.245 14.2823 248.311 14.1701C248.378 14.0579 248.387 13.916 248.33 13.7939ZM241.051 2.35157L244.28 9.23608H236.337L239.566 2.35157H241.047H241.051Z" fill="#FCFCFC"/>
</svg>
