<svg width="248" height="15" viewBox="0 0 248 15" fill="none" xmlns="http://www.w3.org/2000/svg">
<path d="M14.2918 0.536377H13.3029C13.0975 0.536377 12.9332 0.707994 12.9332 0.922516V12.4968H12.6583L2.98061 0.671687C2.9111 0.585878 2.80683 0.536377 2.69941 0.536377H0.40873C0.203359 0.536377 0.0390625 0.707994 0.0390625 0.922516V13.9622C0.0390625 14.1767 0.203359 14.3483 0.40873 14.3483H1.39767C1.60304 14.3483 1.76734 14.1767 1.76734 13.9622V2.38786H2.04222L11.7389 14.213C11.8084 14.2988 11.9127 14.3483 12.0201 14.3483H14.295C14.5003 14.3483 14.6646 14.1767 14.6646 13.9622V0.922516C14.6646 0.707994 14.5003 0.536377 14.295 0.536377H14.2918Z" fill="#1A1A1A"/>
<path d="M26.0286 0.754196C25.9654 0.622182 25.8359 0.536377 25.6969 0.536377H22.5215C22.3793 0.536377 22.2498 0.618882 22.1898 0.754196L16.0981 13.7939C16.0413 13.9127 16.0507 14.0546 16.1171 14.1701C16.1834 14.2823 16.3035 14.3516 16.4299 14.3516H17.5421C17.6842 14.3516 17.8138 14.2691 17.8738 14.1338L19.3525 10.9787H28.8532L30.3319 14.1338C30.3951 14.2658 30.5247 14.3516 30.6637 14.3516H31.7916C31.918 14.3516 32.0381 14.2823 32.1044 14.1701C32.1708 14.0579 32.1803 13.916 32.1234 13.7939L26.0318 0.754196H26.0286ZM24.8406 2.35157L28.0697 9.23608H20.1266L23.3556 2.35157H24.8375H24.8406Z" fill="#1A1A1A"/>
<path d="M40.3341 0.424078C39.1492 0.424078 38.0623 0.45378 37.0134 0.480183C35.9707 0.506585 34.9849 0.536293 33.9107 0.536293C33.7053 0.536293 33.541 0.70791 33.541 0.922433V13.9621C33.541 14.1766 33.7053 14.3482 33.9107 14.3482C34.9628 14.3482 35.9454 14.3746 36.9881 14.401C38.0465 14.4307 39.1429 14.4571 40.3341 14.4571C44.9028 14.4571 48.4794 11.3746 48.4794 7.43731C48.4794 3.5 44.8996 0.41748 40.3341 0.41748V0.424078ZM40.3341 12.6651C39.244 12.6651 38.2203 12.6353 37.2314 12.6056C36.59 12.5858 35.9612 12.5693 35.323 12.5594V2.33168C35.9928 2.32177 36.6405 2.30197 37.2914 2.28217C38.2551 2.25247 39.2503 2.22276 40.3341 2.22276C44.3088 2.22276 46.6816 4.87624 46.6816 7.44391C46.6816 10.0116 44.3088 12.6651 40.3341 12.6651Z" fill="#1A1A1A"/>
<path d="M51.6559 0.536377H50.5943C50.3901 0.536377 50.2246 0.709257 50.2246 0.922516V13.9655C50.2246 14.1787 50.3901 14.3516 50.5943 14.3516H51.6559C51.86 14.3516 52.0256 14.1787 52.0256 13.9655V0.922516C52.0256 0.709257 51.86 0.536377 51.6559 0.536377Z" fill="#1A1A1A"/>
<path d="M63.378 0.754196C63.3148 0.622182 63.1852 0.536377 63.0462 0.536377H59.8709C59.7287 0.536377 59.5992 0.618882 59.5391 0.754196L53.4475 13.7939C53.3906 13.9127 53.4001 14.0546 53.4665 14.1701C53.5328 14.2823 53.6529 14.3516 53.7793 14.3516H54.8914C55.0336 14.3516 55.1631 14.2691 55.2232 14.1338L56.7018 10.9787H66.2026L67.6813 14.1338C67.7445 14.2658 67.874 14.3516 68.013 14.3516H69.141C69.2674 14.3516 69.3874 14.2823 69.4538 14.1701C69.5201 14.0579 69.5296 13.916 69.4727 13.7939L63.3811 0.754196H63.378ZM62.19 2.35157L65.419 9.23608H57.4759L60.705 2.35157H62.1868H62.19Z" fill="#1A1A1A"/>
<path d="M93.3112 14.114C93.3681 13.9688 93.3365 13.8038 93.2322 13.6948L87.1564 7.26247L93.0363 1.19974C93.1438 1.09083 93.1754 0.922516 93.1185 0.777301C93.0616 0.632085 92.9258 0.536377 92.7773 0.536377H91.3523C91.2544 0.536377 91.1596 0.57598 91.0901 0.648587L85.5924 6.36808H80.5087V0.922516C80.5087 0.707994 80.3444 0.536377 80.1391 0.536377H79.0806C78.8752 0.536377 78.7109 0.707994 78.7109 0.922516V13.9622C78.7109 14.1767 78.8752 14.3483 79.0806 14.3483H80.1391C80.3444 14.3483 80.5087 14.1767 80.5087 13.9622V8.16346H85.5703L91.2575 14.2328C91.327 14.3054 91.4218 14.3483 91.5229 14.3483H92.9637C93.1122 14.3483 93.248 14.2559 93.3049 14.1107L93.3112 14.114Z" fill="#1A1A1A"/>
<path d="M100.769 0.351562C96.0837 0.351562 92.9336 3.20306 92.9336 7.444C92.9336 11.6849 96.0805 14.5364 100.769 14.5364C105.458 14.5364 108.602 11.6849 108.602 7.444C108.602 3.20306 105.455 0.351562 100.769 0.351562ZM100.769 12.7377C97.1137 12.7377 94.7503 10.6585 94.7503 7.444C94.7503 4.22947 97.1137 2.14695 100.769 2.14695C104.425 2.14695 106.785 4.22617 106.785 7.444C106.785 10.6618 104.422 12.7377 100.769 12.7377Z" fill="#1A1A1A"/>
<path d="M125.147 5.20627C125.147 2.48019 122.392 0.424072 118.737 0.424072C117.132 0.424072 115.903 0.453775 114.715 0.480177C113.539 0.50658 112.326 0.536288 110.752 0.536288C110.547 0.536288 110.383 0.707905 110.383 0.922427V13.9621C110.383 14.1766 110.547 14.3482 110.752 14.3482H111.795C112 14.3482 112.165 14.1766 112.165 13.9621V9.87625H118.756L122.847 14.2327C122.917 14.3053 123.012 14.3482 123.113 14.3482H124.588C124.737 14.3482 124.873 14.2525 124.929 14.1073C124.986 13.9621 124.955 13.7971 124.847 13.6849L120.983 9.68483C123.435 9.10727 125.151 7.30859 125.151 5.20297L125.147 5.20627ZM123.346 5.22607C123.346 6.63202 121.71 8.13698 119.274 8.13698C117.805 8.13698 115.906 8.13037 114.339 8.12377C113.467 8.12377 112.696 8.11717 112.162 8.11717V2.33167C113.116 2.32837 113.994 2.30527 114.92 2.28217C116.076 2.25246 117.271 2.22276 118.752 2.22276C121.628 2.22276 123.346 3.75082 123.346 5.22607Z" fill="#1A1A1A"/>
<path d="M138.872 14.3517H141.147C141.353 14.3517 141.517 14.1801 141.517 13.9656V0.925934C141.517 0.711412 141.353 0.539795 141.147 0.539795H140.158C139.953 0.539795 139.789 0.711412 139.789 0.925934V12.5002H139.514L129.836 0.67511C129.767 0.589301 129.662 0.539795 129.555 0.539795H127.264C127.059 0.539795 126.895 0.711412 126.895 0.925934V13.9656C126.895 14.1801 127.059 14.3517 127.264 14.3517H128.253C128.459 14.3517 128.623 14.1801 128.623 13.9656V2.39129H128.898L138.594 14.2164C138.664 14.3022 138.768 14.3517 138.876 14.3517H138.872Z" fill="#1A1A1A"/>
<path d="M156.098 2.31526C156.303 2.31526 156.467 2.14364 156.467 1.92912V0.922516C156.467 0.707994 156.303 0.536377 156.098 0.536377H144.12C143.914 0.536377 143.75 0.707994 143.75 0.922516V13.9622C143.75 14.1767 143.914 14.3483 144.12 14.3483H156.098C156.303 14.3483 156.467 14.1767 156.467 13.9622V12.9556C156.467 12.741 156.303 12.5694 156.098 12.5694H145.551V8.31198H155.058C155.263 8.31198 155.428 8.14037 155.428 7.92584V6.95554C155.428 6.74102 155.263 6.5694 155.058 6.5694H145.551V2.31196H156.098V2.31526Z" fill="#1A1A1A"/>
<path d="M158.477 14.3516H170.455C170.66 14.3516 170.825 14.18 170.825 13.9655V12.9589C170.825 12.7443 170.66 12.5727 170.455 12.5727H159.908V8.31528H169.415C169.621 8.31528 169.785 8.14367 169.785 7.92914V6.95884C169.785 6.74432 169.621 6.5727 169.415 6.5727H159.908V2.31526H170.455C170.66 2.31526 170.825 2.14364 170.825 1.92912V0.922516C170.825 0.707994 170.66 0.536377 170.455 0.536377H158.477C158.272 0.536377 158.107 0.707994 158.107 0.922516V13.9622C158.107 14.1767 158.272 14.3483 158.477 14.3483V14.3516Z" fill="#1A1A1A"/>
<path d="M186.721 0.536377H185.733C185.527 0.536377 185.363 0.707994 185.363 0.922516V12.4968H185.088L175.41 0.671687C175.341 0.585878 175.237 0.536377 175.129 0.536377H172.838C172.633 0.536377 172.469 0.707994 172.469 0.922516V13.9622C172.469 14.1767 172.633 14.3483 172.838 14.3483H173.827C174.033 14.3483 174.197 14.1767 174.197 13.9622V2.38786H174.472L184.169 14.213C184.238 14.2988 184.342 14.3483 184.45 14.3483H186.725C186.93 14.3483 187.094 14.1767 187.094 13.9622V0.922516C187.094 0.707994 186.93 0.536377 186.725 0.536377H186.721Z" fill="#1A1A1A"/>
<path d="M197.766 7.2593L203.646 1.19658C203.753 1.08766 203.785 0.919342 203.728 0.774127C203.671 0.628912 203.535 0.533203 203.387 0.533203H201.962C201.864 0.533203 201.769 0.572806 201.699 0.645414L196.202 6.36491H191.118V0.919343C191.118 0.70482 190.954 0.533203 190.748 0.533203H189.69C189.485 0.533203 189.32 0.70482 189.32 0.919343V13.959C189.32 14.1735 189.485 14.3451 189.69 14.3451H190.748C190.954 14.3451 191.118 14.1735 191.118 13.959V8.1603H196.18L201.867 14.2296C201.936 14.3022 202.031 14.3451 202.132 14.3451H203.573C203.722 14.3451 203.857 14.2527 203.914 14.1075C203.971 13.9623 203.94 13.7973 203.835 13.6851L197.759 7.2527L197.766 7.2593Z" fill="#1A1A1A"/>
<path d="M211.375 0.351562C206.689 0.351562 203.539 3.20306 203.539 7.444C203.539 11.6849 206.689 14.5364 211.375 14.5364C216.06 14.5364 219.21 11.6849 219.21 7.444C219.21 3.20306 216.06 0.351562 211.375 0.351562ZM211.375 12.7377C207.719 12.7377 205.359 10.6585 205.359 7.444C205.359 4.22947 207.722 2.14695 211.375 2.14695C215.027 2.14695 217.391 4.22617 217.391 7.444C217.391 10.6618 215.027 12.7377 211.375 12.7377Z" fill="#1A1A1A"/>
<path d="M233.954 0.701524C233.885 0.595913 233.771 0.536507 233.651 0.536507H232.539C232.384 0.536507 232.245 0.635515 232.191 0.787331L228.027 12.5134H224.795L220.649 0.787331C220.596 0.635515 220.457 0.533203 220.302 0.533203H219.174C219.054 0.533203 218.94 0.59591 218.871 0.69822C218.801 0.803831 218.785 0.935846 218.829 1.05466L223.515 14.0943C223.569 14.2461 223.708 14.3451 223.863 14.3451H228.965C229.12 14.3451 229.259 14.2461 229.313 14.0943L233.998 1.05466C234.04 0.935846 234.024 0.803831 233.957 0.69822L233.954 0.701524Z" fill="#1A1A1A"/>
<path d="M247.729 13.7939L241.637 0.754196C241.574 0.622182 241.447 0.536377 241.305 0.536377H238.127C237.985 0.536377 237.855 0.618882 237.795 0.754196L231.703 13.7939C231.646 13.9127 231.656 14.0546 231.722 14.1701C231.789 14.2823 231.909 14.3516 232.035 14.3516H233.147C233.289 14.3516 233.419 14.2691 233.479 14.1338L234.958 10.9787H244.458L245.937 14.1338C246 14.2658 246.127 14.3516 246.269 14.3516H247.397C247.523 14.3516 247.643 14.2823 247.71 14.1701C247.776 14.0579 247.785 13.916 247.729 13.7939ZM240.449 2.35157L243.678 9.23608H235.735L238.964 2.35157H240.446H240.449Z" fill="#1A1A1A"/>
</svg>
