<svg width="14" height="12" viewBox="0 0 14 12" fill="none" xmlns="http://www.w3.org/2000/svg">
<path d="M13.5467 6.24759L8.64673 11.1476C8.57813 11.2162 8.48853 11.2498 8.39893 11.2498C8.30933 11.2498 8.21972 11.2155 8.15112 11.1476C8.01462 11.0111 8.01462 10.7892 8.15112 10.6527L12.4533 6.35047H0.699609C0.506409 6.35047 0.349609 6.19367 0.349609 6.00047C0.349609 5.80727 0.506409 5.65047 0.699609 5.65047H12.4547L8.15249 1.34827C8.01599 1.21177 8.01599 0.989852 8.15249 0.853352C8.28899 0.716852 8.51091 0.716852 8.64741 0.853352L13.5474 5.75335C13.5796 5.78555 13.6054 5.82481 13.623 5.86751C13.6587 5.95291 13.6587 6.04957 13.623 6.13497C13.6047 6.17627 13.5789 6.21539 13.5467 6.24759Z" fill="#FCFCFC"/>
</svg>
