<svg width="60" height="60" viewBox="0 0 60 60" fill="none" xmlns="http://www.w3.org/2000/svg">
<rect width="60" height="60" rx="30" fill="#338D96"/>
<path d="M33.0676 38.6735L50.6953 22.8515C51.2263 22.3752 51.2712 21.5572 50.7949 21.0301C50.5645 20.7725 50.2502 20.6221 49.9067 20.6007C49.565 20.5851 49.2312 20.7002 48.9735 20.9306L33.3701 34.9391L33.294 35.0074L31.8963 36.2607L31.865 36.2295V21.4186C33.0793 20.9189 33.9363 19.7242 33.9363 18.3342C33.9363 16.4973 32.4331 15 30.5825 15C28.7319 15 27.2287 16.4953 27.2287 18.3342C27.2287 19.7066 28.0662 20.8896 29.257 21.401V36.2275L29.218 36.247L27.8768 35.0445L27.7578 34.9371L12.1505 20.9286C11.8967 20.6983 11.5668 20.5831 11.2212 20.5987C10.8757 20.6182 10.5595 20.7686 10.3291 21.0282C10.0988 21.2859 9.98358 21.6158 10.0031 21.9613C10.0187 22.3029 10.1729 22.6192 10.4287 22.8495L20.652 32.0246C24.5777 35.5403 26.7993 37.5413 28.0603 38.6716V38.6872L29.6865 40.1591L29.7704 40.2235C29.7977 40.243 29.8251 40.2665 29.8543 40.284C29.8895 40.3075 29.9305 40.327 29.9851 40.3563C30.0125 40.3719 30.0437 40.3875 30.073 40.3953C30.1198 40.4148 30.1686 40.4304 30.2194 40.4422L30.3033 40.4656C30.3541 40.4734 30.4068 40.4812 30.4537 40.4812C30.4966 40.489 30.5376 40.489 30.5766 40.489C30.6079 40.489 30.6411 40.489 30.6723 40.4812C30.723 40.4812 30.7719 40.4734 30.8187 40.4656C30.8499 40.4617 30.8792 40.4539 30.9105 40.4422C30.9612 40.4304 31.01 40.4148 31.053 40.3992C31.0842 40.3875 31.1135 40.3719 31.1564 40.3524C31.1955 40.3328 31.2365 40.3094 31.2716 40.2879C31.2989 40.2684 31.3263 40.2489 31.3673 40.2157L33.0695 38.6872V38.6716L33.0676 38.6735Z" fill="#FCFCFC"/>
<path d="M11.2935 41.9979C12.008 41.9979 12.5878 41.4182 12.5878 40.7037V31.5521C12.5878 30.8376 12.008 30.2539 11.2935 30.2539C10.579 30.2539 9.99927 30.8376 9.99927 31.5521V40.7037C9.99927 41.4182 10.579 41.9979 11.2935 41.9979Z" fill="#FCFCFC"/>
<path d="M51.1486 40.7056V31.554C51.1486 30.8395 50.5688 30.2559 49.8543 30.2559C49.1398 30.2559 48.5601 30.8395 48.5601 31.554V40.7056C48.5601 41.4201 49.1398 41.9999 49.8543 41.9999C50.5688 41.9999 51.1486 41.4201 51.1486 40.7056Z" fill="#FCFCFC"/>
</svg>
